<svg xmlns="http://www.w3.org/2000/svg" width="24" height="24" viewBox="0 0 512 512" id="audi">
  <path fill="#2b2a29" d="M105 164c19 0 37 7 52 17 14-11 32-17 52-17 19 0 37 6 51 17 14-11 32-17 51-17s37 7 52 17c14-11 32-17 52-17 47 0 85 38 85 85s-38 85-85 85c-19 0-37-7-52-17-14 11-32 17-52 17-19 0-37-6-51-17-14 11-32 17-51 17s-37-7-52-17c-14 11-32 17-52 17-47 0-85-38-85-85s38-85 85-85zm170 33c11 14 18 32 18 52s-7 38-18 52c10 7 22 11 36 11 13 0 26-4 36-11-11-14-18-32-18-52s7-38 18-52c-10-7-23-11-36-11s-25 4-36 11zm-32 104c-11-14-18-32-18-52s7-38 18-52c-10-7-22-11-36-11-13 0-26 4-36 11 11 14 18 32 18 52s-7 38-18 52c10 7 23 11 36 11s25-4 36-11zm134-104c11 14 18 32 18 52s-7 38-18 52c10 7 23 11 36 11 35 0 63-28 63-63s-28-63-63-63c-13 0-26 4-36 11zm-119 15c-7 10-12 23-12 37s4 26 12 37c7-10 12-23 12-37s-4-26-12-37zm103 73c-7-10-11-23-11-36 0-14 4-26 11-36 7 10 11 23 11 36 0 14-4 26-11 36zm-221 16c-11-14-18-32-18-52s7-38 18-52c-10-7-23-11-36-11-35 0-63 28-63 63s28 63 63 63c13 0 26-4 36-11zm16-16c-7-10-11-23-11-36 0-14 4-26 11-36 7 10 11 23 11 36 0 14-4 26-11 36z"></path>
</svg>
