<svg xmlns="http://www.w3.org/2000/svg" viewBox="0 0 24 24" id="citroen"><path d="M23.168 14.775c-.315 0-.511-.173-.579-.233-2.875-2.556-8.34-6.88-10.589-6.88-2.243 0-7.712 4.324-10.59 6.88-.073.066-.294.273-.689.227-.447-.051-.66-.479-.668-.856 0 0-.053-.796-.053-1.596 0-1.178.854-2.167.891-2.208C1.722 9.173 9.076 1 12 1c2.923 0 10.278 8.173 11.107 9.105.039.044.893 1.034.893 2.211 0 .812-.054 1.618-.054 1.618-.007.354-.22.783-.671.835a1 1 0 0 1-.107.006zM12 2c-1.865 0-7.344 5.379-10.359 8.77-.003.003-.641.75-.641 1.546 0 .465.019.927.033 1.225C2.898 11.909 9.118 6.662 12 6.662c2.896 0 9.132 5.271 10.966 6.879.016-.31.034-.766.034-1.225 0-.793-.637-1.542-.643-1.55C19.344 7.379 13.863 2 12 2z"></path><path d="M.83 23a.95.95 0 0 1-.105-.006c-.451-.054-.664-.482-.672-.858 0 0-.053-.796-.053-1.596 0-1.177.854-2.166.891-2.207.831-.936 8.185-9.109 11.109-9.109 2.923 0 10.278 8.174 11.107 9.106.039.044.893 1.033.893 2.21 0 .812-.054 1.617-.054 1.617-.007.353-.219.782-.669.835a.837.837 0 0 1-.688-.227c-2.872-2.555-8.333-6.88-10.589-6.88-2.257 0-7.718 4.325-10.59 6.881A.84.84 0 0 1 .83 23zM12 10.224c-1.864 0-7.344 5.38-10.359 8.771-.003.003-.641.749-.641 1.545 0 .465.019.928.033 1.225 1.859-1.631 8.069-6.88 10.967-6.88 2.903 0 9.133 5.271 10.966 6.879.016-.309.034-.765.034-1.224 0-.792-.637-1.541-.643-1.549-3.013-3.387-8.494-8.767-10.357-8.767z"></path></svg>