<svg xmlns="http://www.w3.org/2000/svg" width="512" height="512" fill-rule="evenodd" clip-rule="evenodd" image-rendering="optimizeQuality" shape-rendering="geometricPrecision" text-rendering="geometricPrecision" id="citroen"><path fill="#2b2a29" d="M481 304S325 159 256 159c-68 0-229 146-229 146v-40s4-32 26-54S221 62 221 62s33-31 76 1 153 138 153 138 35 32 35 64-4 40-4 40zM35 471s156-145 225-145c68 0 229 146 229 146v-40s-4-32-26-54-168-149-168-149-33-31-76 1S66 368 66 368s-35 32-35 64 4 40 4 40z"></path></svg>