<?xml version="1.0" encoding="UTF-8"?><svg id="Layer_1" xmlns="http://www.w3.org/2000/svg" viewBox="0 0 351 291"><g style="isolation:isolate;"><g style="isolation:isolate;"><path d="m78.27,32.92c19.8,0,32.88,12.6,32.88,30.96s-12.6,30.96-30.36,30.96c-4,0-7.68-.48-11-1.38-1.33,7.95-2.68,14.83-2.68,20.46,0,3.48-2.52,5.28-5.16,5.28s-4.92-1.68-4.92-5.16c0-11.88,5.28-27.96,5.28-46.92,0-3.48-1.68-10.2-1.68-11.64,0-3,2.16-4.92,4.68-4.92,6.12,0,7.08,9.12,7.08,16.56,0,6.23-.54,12.1-1.26,17.57,2.66.83,5.81,1.39,9.18,1.39,12.36,0,20.76-9.24,20.76-22.2s-8.76-21.96-22.8-21.96c-17.76,0-26.64,9-26.64,21.48,0,4.44-2.4,6.6-4.92,6.6s-4.8-2.28-4.8-6.6c0-17.04,13.44-30.48,36.36-30.48h0Z" style="fill:#fff;"/></g><g style="isolation:isolate;"><path d="m168.39,87.52c.9-2.29,2.44-3.22,3.91-3.22,1.99,0,3.86,1.7,3.86,4.02,0,.54-.1,1.12-.33,1.72-6.84,18.12-13.08,28.44-21.72,28.44-4.95,0-9.69-3.43-11.65-10.71-4.76,7.03-10.05,10.71-17.03,10.71-9.48,0-16.32-6.6-16.32-19.44,0-17.28,12.12-30,24.36-30,3.18,0,6.41.83,9.47,2.62.86-2.34,2.42-3.7,4.81-3.7s4.32,1.68,4.32,5.16c0,2.88-1.92,17.16-1.92,24,0,10.2,2.4,12.6,4.8,12.6,3.84,0,9.24-11.52,13.44-22.2h0Zm-41.64,22.08c4.23,0,11.45-3.8,14.46-17.37.39-2.61.71-5.51.84-10.04-1.01-2.66-3.73-4.39-7.38-4.39-8.04,0-15.96,9-15.96,20.88,0,7.56,3.36,10.92,8.04,10.92h0Z" style="fill:#fff;"/><path d="m218.26,84.3c1.99,0,3.86,1.7,3.86,4.02,0,.54-.1,1.12-.33,1.72-6.72,17.76-13.56,28.32-25.32,28.32-8.88,0-15.24-6.36-15.24-15.36,0-7.55,3.58-16.3,6.96-23.99-2.76-.33-5.28-1.16-7.57-2.18-1.42,4.18-2.88,8.24-4.79,13.21-.82,2.11-2.4,2.99-3.92,2.99-1.98,0-3.88-1.5-3.88-3.76,0-.54.11-1.13.36-1.75,2.04-5.16,3.72-10.08,4.92-14.76-1.32-.96-1.8-2.64-1.8-4.2,0-2.52,1.56-5.16,4.44-5.16,2.16,0,3.12.96,4.08,2.28,1.56,2.16,4.08,5.28,9.96,5.28,2.64,0,3.96-.96,5.52-.96,2.4,0,4.2,1.8,4.2,4.44,0,1.2-.48,2.88-1.32,4.92-2.64,6.36-7.56,16.08-7.56,23.16,0,4.44,2.64,7.08,6.72,7.08,7.32,0,13.56-13.8,16.8-22.08.9-2.29,2.44-3.22,3.91-3.22Z" style="fill:#fff;"/><path d="m263.91,87.52c.88-2.26,2.37-3.16,3.81-3.16,2.02,0,3.93,1.78,3.93,4.09,0,.51-.09,1.04-.3,1.59-6.48,17.28-12.96,28.8-23.76,28.8-8.4,0-17.16-8.76-17.16-19.8,0-3.6,2.04-5.04,6.48-7.2,4.2-2.04,8.76-4.68,8.76-8.52,0-3-1.8-4.8-5.52-4.8-6.54,0-15.14,7.07-15.74,23.68.12,3.16.29,6.43.5,9.8.25,4.19-1.53,6.48-4.8,6.48-2.96,0-4.56-2.15-4.8-6-.48-8.76-.6-17.76-.6-26.52s.5-15.58,1.41-21.71c-.35-.08-.7-.16-1.05-.25-2.64-.72-3.84-2.64-3.84-4.32,0-2.04,1.56-3.96,4.08-3.96.66,0,1.47.13,2.42.32,4.44-17.73,13.23-23.6,22.54-23.6,8.4,0,14.04,5.64,14.04,13.8,0,9.48-9.48,18.96-28.2,18.96h-.44c-.6,4.29-1.04,9.29-1.27,15.13,4.86-7,11.79-10.57,18.28-10.57,7.2,0,12.6,5.4,12.6,12.72,0,8.76-6.12,12.72-10.56,15.12-2.4,1.32-4.2,2.28-4.2,3.48,0,4.92,4.08,9,7.68,9,6.36,0,12.6-14.64,15.72-22.56h0Zm-36.78-30.24h.18c11.88,0,17.76-5.88,17.76-10.8,0-3.24-2.04-5.28-5.16-5.28-4.75,0-9.73,3.36-12.78,16.08Z" style="fill:#fff;"/></g><g style="isolation:isolate;"><path d="m98.79,134.08c-4.69,0-9.42-.35-13.95-.79-.42,6.63-1.17,17.3-1.86,27.11.67-.03,1.3-.05,1.89-.05,3.6,0,7.44.6,11.16,1.32,2.88.6,4.32,2.4,4.32,4.2,0,2.28-1.68,4.2-5.04,4.2-2.04,0-6.72-.84-10.2-.84-.96,0-1.88.03-2.76.08l-.24,3.4c-1.8,24.84-8.52,35.4-22.2,35.4-8.76,0-16.32-6.36-16.32-13.56,0-3.6,2.28-5.64,4.56-5.64,2.52,0,3.6,1.32,4.44,4.32,1.08,3.96,3.96,5.88,7.32,5.88,7.32,0,10.56-8.16,12.12-27.12.02-.18.04-.48.07-.87-3.33.92-5.85,1.83-7.87,1.83-2.88,0-4.2-1.32-4.2-3.48,0-1.68,1.2-3.24,3.24-4.44,2.4-1.42,5.88-2.52,9.51-3.29.72-10.11,1.72-24.58,1.99-29.49-3.39-.33-6.51-.58-9.22-.58-7.56,0-11.88,3.12-11.88,8.64s3.96,7.2,6.6,9.12c1.32.96,2.28,2.04,2.28,3.84,0,2.16-1.56,3.72-5.04,3.72-6.6,0-13.92-7.2-13.92-16.56,0-10.56,7.68-17.76,21.72-17.76,10.56,0,21.96,2.4,31.92,2.4,6.12,0,8.88-1.92,11.76-1.92,2.64,0,4.32,1.68,4.32,3.84,0,4.44-7.68,7.08-14.52,7.08h0Z" style="fill:#fff;"/></g><g style="isolation:isolate;"><path d="m146.19,177.52c.83-2.12,2.43-3.02,3.96-3.02,1.97,0,3.84,1.49,3.84,3.76,0,.55-.11,1.15-.36,1.78-7.32,18.6-14.4,28.32-25.56,28.32-10.32,0-18.48-7.92-18.48-31.44,0-43.08,10.56-53.76,21.36-53.76,6.24,0,10.8,4.56,10.8,11.88,0,14-7.39,30.93-22.4,47.78.66,9.47,3.46,16.78,9.56,16.78,7.44,0,13.92-13.56,17.28-22.08h0Zm-16.32-45.6c-3.5,0-9.5,10.28-10.53,37.75,8.97-12.25,13.05-23.76,13.05-32.95,0-3.84-.96-4.8-2.52-4.8h0Z" style="fill:#fff;"/><path d="m197.31,177.52c.83-2.17,2.42-3.07,3.95-3.07,1.97,0,3.85,1.52,3.85,3.8,0,.55-.11,1.15-.36,1.79-4.1,10.86-13,16.39-21.71,17.18-3.89,6.79-10.38,11.74-19.57,11.74-13.2,0-19.08-10.44-19.08-21.84,0-14.04,8.88-29.64,23.76-29.64,3.17,0,5.92.61,8.22,1.58,6.69,2.56,11.1,11.35,11.1,20.74,0,2.93-.35,5.93-1.06,8.84,4.49-1.56,8.64-5.2,10.9-11.12h0Zm-33.72,22.68c3.33,0,6.66-1.54,9.27-4.53-7.8-3.41-12.63-11.55-12.63-19.35,0-2.72.42-5.4,1.19-7.82-4.79,3.94-7.55,11.67-7.55,18.62,0,8.88,4.2,13.08,9.72,13.08h0Zm8.76-33c-2.64,0-4.2,3.48-4.2,7.68,0,6.05,3.35,11.65,8.53,13.76.83-2.64,1.31-5.71,1.31-9.2,0-6.72-2.04-12.24-5.64-12.24h0Z" style="fill:#fff;"/><path d="m272.42,177.52c.85-2.23,2.36-3.14,3.83-3.14,2.01,0,3.94,1.7,3.94,4,0,.53-.1,1.08-.33,1.66-2.88,7.44-9.12,11.16-15.24,11.16-2.54,0-5.08-.65-7.39-1.95-4.81,10.95-13.42,18.75-22.25,18.75-5.02,0-8.93-2.17-10.99-6.72-4.02,4.68-9.14,7.8-15.05,7.8-7.68,0-13.2-5.52-13.2-16.56,0-8.4,2.76-19.08,2.76-27.6,0-4.44,1.92-6.36,5.04-6.36,2.88,0,4.56,1.68,4.56,6.36,0,8.04-2.76,19.32-2.76,26.76,0,6.6,2.04,8.64,4.68,8.64,3.47,0,11.6-5.14,13.9-22.8.22-2.53.38-5.48.38-9.12,0-3,1.8-5.4,4.92-5.4s4.68,1.8,4.68,5.16c0,3.7-.16,6.74-.38,9.32-.04.53-.09,1.06-.15,1.6-.64,6.02-1.62,9.44-1.62,13.57,0,4.8,1.8,6.6,4.2,6.6,3.97,0,11.38-6.57,14.34-17.58-1.54-3.15-2.46-7.09-2.46-11.82,0-7.68,3.36-11.64,6.6-11.64s6.72,4.08,6.72,12.48c0,3.75-.47,7.43-1.33,10.93,1.42,1.1,3.12,1.67,4.81,1.67,3.12,0,6.36-1.92,7.8-5.76h0Z" style="fill:#fff;"/></g></g><path d="m283.67,166.78c11.17-16.67,35.37-.99,38.67,14.67,8.89,42.22-17.77,80.83-51.11,85.78-68.89,10.22-120.89-45.11-170.89-45.78s-63.67,25.67-75.33,36.67" style="fill:none; stroke:#fff; stroke-dasharray:0 0 0 0 0 0 16 16; stroke-linecap:round; stroke-miterlimit:10; stroke-width:8px;"/></svg>